<?xml version="1.0" encoding="UTF-8" standalone="no"?>
<!-- Created with Inkscape (http://www.inkscape.org/) -->

<svg
   xmlns:dc="http://purl.org/dc/elements/1.1/"
   xmlns:cc="http://creativecommons.org/ns#"
   xmlns:rdf="http://www.w3.org/1999/02/22-rdf-syntax-ns#"
   xmlns:svg="http://www.w3.org/2000/svg"
   xmlns="http://www.w3.org/2000/svg"
   xmlns:sodipodi="http://sodipodi.sourceforge.net/DTD/sodipodi-0.dtd"
   xmlns:inkscape="http://www.inkscape.org/namespaces/inkscape"
   sodipodi:docname="sample-box.svg"
   inkscape:version="0.91 r13725"
   version="1.1"
   id="svg2"
   viewBox="0 0 990 764.9998"
   height="8.5in"
   width="11in">
  <sodipodi:namedview
     inkscape:window-maximized="1"
     inkscape:window-y="282"
     inkscape:window-x="0"
     inkscape:window-height="720"
     inkscape:window-width="1366"
     units="in"
     showgrid="false"
     inkscape:current-layer="svg2"
     inkscape:document-units="mm"
     inkscape:cy="378.0092"
     inkscape:cx="641.4665"
     inkscape:zoom="0.7156372"
     inkscape:pageshadow="2"
     inkscape:pageopacity="0.0"
     borderopacity="1.0"
     bordercolor="#666666"
     pagecolor="#ffffff"
     id="base" />
  <defs
     id="defs4" />
  <metadata
     id="metadata7">
    <rdf:RDF>
      <cc:Work
         rdf:about="">
        <dc:format>image/svg+xml</dc:format>
        <dc:type
           rdf:resource="http://purl.org/dc/dcmitype/StillImage" />
        <dc:title></dc:title>
      </cc:Work>
    </rdf:RDF>
  </metadata>
  <g
     transform="translate(0,-287.3622)"
     id="layer1"
     inkscape:groupmode="layer"
     inkscape:label="Layer 1" />
  <g
     id="g15886"
     inkscape:groupmode="layer"
     inkscape:label="newlayer" />
  <path
     id="path15888"
     inkscape:label="part"
     style="fill:none;stroke:#000000;stroke-width:0.5"
     d="m 361.8224,456.0238 0,-12.4016 -2.6575,0 0,-5.315 2.6575,0 0,-1.3287 2.6575,0 0,0 2.6575,0 0,1.3287 2.6575,0 0,5.315 -2.6575,0 0,12.4016"
     inkscape:connector-curvature="0" />
  <circle
     id="path15890"
     style="fill:none;stroke:#000000;stroke-width:0.5"
     cx="389.7881"
     cy="461.3387"
     r="2.65748" />
  <path
     id="path15892"
     inkscape:label="part"
     style="fill:none;stroke:#000000;stroke-width:0.5"
     d="m 412.4411,456.0238 0,-12.4016 -2.6575,0 0,-5.315 2.6575,0 0,-1.3287 2.6575,0 0,0 2.6575,0 0,1.3287 2.6574,0 0,5.315 -2.6574,0 0,12.4016"
     inkscape:connector-curvature="0" />
  <circle
     id="path15894"
     style="fill:none;stroke:#000000;stroke-width:0.5"
     cx="440.4061"
     cy="461.3387"
     r="2.65748" />
  <path
     id="path15896"
     inkscape:label="part"
     style="fill:none;stroke:#000000;stroke-width:0.5"
     d="m 463.0598,456.0238 0,-12.4016 -2.6575,0 0,-5.315 2.6575,0 0,-1.3287 2.6575,0 0,0 2.6574,0 0,1.3287 2.6575,0 0,5.315 -2.6575,0 0,12.4016"
     inkscape:connector-curvature="0" />
  <path
     id="path15898"
     inkscape:label="part"
     style="fill:none;stroke:#000000;stroke-width:0.5"
     d="m 326.5159,466.6537 25.265,0 0,-10.6299 12.699,0 12.699,0 0,10.6299 12.6103,0 12.6104,0 0,-10.6299 12.699,0 12.6989,0 0,10.6299 12.6104,0 12.6104,0 0,-10.6299 12.699,0 12.6989,0 0,10.6299 25.2651,0"
     inkscape:connector-curvature="0" />
  <path
     id="path15900"
     inkscape:label="part"
     style="fill:none;stroke:#000000;stroke-width:0.5"
     d="m 493.0513,431.3472 -12.4015,0 0,2.6575 -5.315,0 0,-2.6575 -1.3287,0 0,-2.6575 0,0 0,-2.6575 1.3287,0 0,-2.6575 5.315,0 0,2.6575 12.4015,0"
     inkscape:connector-curvature="0" />
  <circle
     id="path15902"
     style="fill:none;stroke:#000000;stroke-width:0.5"
     cx="498.3641"
     cy="403.3804"
     r="2.65748" />
  <path
     id="path15904"
     inkscape:label="part"
     style="fill:none;stroke:#000000;stroke-width:0.5"
     d="m 493.0513,380.7285 -12.4015,0 0,2.6575 -5.315,0 0,-2.6575 -1.3287,0 0,-2.6575 0,0 0,-2.6575 1.3287,0 0,-2.6574 5.315,0 0,2.6574 12.4015,0"
     inkscape:connector-curvature="0" />
  <circle
     id="path15906"
     style="fill:none;stroke:#000000;stroke-width:0.5"
     cx="498.3641"
     cy="352.7617"
     r="2.65748" />
  <path
     id="path15908"
     inkscape:label="part"
     style="fill:none;stroke:#000000;stroke-width:0.5"
     d="m 493.0513,330.1098 -12.4015,0 0,2.6575 -5.315,0 0,-2.6575 -1.3287,0 0,-2.6574 0,0 0,-2.6575 1.3287,0 0,-2.6575 5.315,0 0,2.6575 12.4015,0"
     inkscape:connector-curvature="0" />
  <path
     id="path15910"
     inkscape:label="part"
     style="fill:none;stroke:#000000;stroke-width:0.5"
     d="m 503.6813,466.6537 0,-25.265 -10.63,0 0,-12.699 0,-12.699 10.63,0 0,-12.6103 0,-12.6104 -10.63,0 0,-12.699 0,-12.6989 10.63,0 0,-12.6104 0,-12.6104 -10.63,0 0,-12.6989 0,-12.699 10.63,0 0,-25.2651"
     inkscape:connector-curvature="0" />
  <path
     id="path15912"
     inkscape:label="part"
     style="fill:none;stroke:#000000;stroke-width:0.5"
     d="m 503.6813,289.4883 -25.2651,0 0,10.63 -12.6989,0 -12.699,0 0,-10.63 -12.6104,0 -12.6104,0 0,10.63 -12.6989,0 -12.699,0 0,-10.63 -12.6104,0 -12.6103,0 0,10.63 -12.699,0 -12.699,0 0,-10.63 -25.265,0"
     inkscape:connector-curvature="0" />
  <path
     id="path15914"
     inkscape:label="part"
     style="fill:none;stroke:#000000;stroke-width:0.5"
     d="m 337.1458,324.7949 12.4016,0 0,-2.6575 5.315,0 0,2.6575 1.3287,0 0,2.6575 0,0 0,2.6574 -1.3287,0 0,2.6575 -5.315,0 0,-2.6575 -12.4016,0"
     inkscape:connector-curvature="0" />
  <circle
     id="path15916"
     style="fill:none;stroke:#000000;stroke-width:0.5"
     cx="331.8306"
     cy="352.7617"
     r="2.65748" />
  <path
     id="path15918"
     inkscape:label="part"
     style="fill:none;stroke:#000000;stroke-width:0.5"
     d="m 337.1458,375.4135 12.4016,0 0,-2.6574 5.315,0 0,2.6574 1.3287,0 0,2.6575 0,0 0,2.6575 -1.3287,0 0,2.6575 -5.315,0 0,-2.6575 -12.4016,0"
     inkscape:connector-curvature="0" />
  <circle
     id="path15920"
     style="fill:none;stroke:#000000;stroke-width:0.5"
     cx="331.8306"
     cy="403.3804"
     r="2.65748" />
  <path
     id="path15922"
     inkscape:label="part"
     style="fill:none;stroke:#000000;stroke-width:0.5"
     d="m 337.1458,426.0322 12.4016,0 0,-2.6575 5.315,0 0,2.6575 1.3287,0 0,2.6575 0,0 0,2.6575 -1.3287,0 0,2.6575 -5.315,0 0,-2.6575 -12.4016,0"
     inkscape:connector-curvature="0" />
  <path
     id="path15924"
     inkscape:label="part"
     style="fill:none;stroke:#000000;stroke-width:0.5"
     d="m 326.5159,289.4883 0,25.2651 10.6299,0 0,12.699 0,12.6989 -10.6299,0 0,12.6104 0,12.6104 10.6299,0 0,12.6989 0,12.699 -10.6299,0 0,12.6104 0,12.6103 10.6299,0 0,12.699 0,12.699 -10.6299,0 0,25.265"
     inkscape:connector-curvature="0" />
  <text
     id="text15926"
     y="378.07086"
     x="415.09763"
     style="font-size:12px;fill:#ff0000">front_panel</text>
  <path
     id="path15928"
     inkscape:label="part"
     style="fill:none;stroke:#000000;stroke-width:0.5"
     d="m 719.6964,456.0238 0,-12.4016 -2.6574,0 0,-5.315 2.6574,0 0,-1.3287 2.6575,0 0,0 2.6575,0 0,1.3287 2.6575,0 0,5.315 -2.6575,0 0,12.4016"
     inkscape:connector-curvature="0" />
  <circle
     id="path15930"
     style="fill:none;stroke:#000000;stroke-width:0.5"
     cx="747.6609"
     cy="461.3387"
     r="2.65748" />
  <path
     id="path15932"
     inkscape:label="part"
     style="fill:none;stroke:#000000;stroke-width:0.5"
     d="m 770.3151,456.0238 0,-12.4016 -2.6575,0 0,-5.315 2.6575,0 0,-1.3287 2.6575,0 0,0 2.6575,0 0,1.3287 2.6575,0 0,5.315 -2.6575,0 0,12.4016"
     inkscape:connector-curvature="0" />
  <circle
     id="path15934"
     style="fill:none;stroke:#000000;stroke-width:0.5"
     cx="798.2803"
     cy="461.3387"
     r="2.65748" />
  <path
     id="path15936"
     inkscape:label="part"
     style="fill:none;stroke:#000000;stroke-width:0.5"
     d="m 820.9361,456.0238 0,-12.4016 -2.6573,0 0,-5.315 2.6573,0 0,-1.3287 2.6583,0 0,0 2.6573,0 0,1.3287 2.658,0 0,5.315 -2.658,0 0,12.4016"
     inkscape:connector-curvature="0" />
  <path
     id="path15938"
     inkscape:label="part"
     style="fill:none;stroke:#000000;stroke-width:0.5"
     d="m 684.3899,466.6537 25.2651,0 0,-10.6299 12.6989,0 12.699,0 0,10.6299 12.6104,0 12.6103,0 0,-10.6299 12.699,0 12.699,0 0,10.6299 12.6117,0 12.6109,0 0,-10.6299 12.7002,0 12.6999,0 0,10.6299 25.2674,0"
     inkscape:connector-curvature="0" />
  <path
     id="path15940"
     inkscape:label="part"
     style="fill:none;stroke:#000000;stroke-width:0.5"
     d="m 850.9308,431.3472 -12.4032,0 0,2.6575 -5.3153,0 0,-2.6575 -1.3283,0 0,-2.6575 0,0 0,-2.6575 1.3283,0 0,-2.6575 5.3153,0 0,2.6575 12.4032,0"
     inkscape:connector-curvature="0" />
  <circle
     id="path15942"
     style="fill:none;stroke:#000000;stroke-width:0.5"
     cx="856.2449"
     cy="403.3804"
     r="2.65748" />
  <path
     id="path15944"
     inkscape:label="part"
     style="fill:none;stroke:#000000;stroke-width:0.5"
     d="m 850.9308,380.7285 -12.4032,0 0,2.6575 -5.3153,0 0,-2.6575 -1.3283,0 0,-2.6575 0,0 0,-2.6575 1.3283,0 0,-2.6574 5.3153,0 0,2.6574 12.4032,0"
     inkscape:connector-curvature="0" />
  <circle
     id="path15946"
     style="fill:none;stroke:#000000;stroke-width:0.5"
     cx="856.2449"
     cy="352.7617"
     r="2.65748" />
  <path
     id="path15948"
     inkscape:label="part"
     style="fill:none;stroke:#000000;stroke-width:0.5"
     d="m 850.9308,330.1098 -12.4032,0 0,2.6575 -5.3153,0 0,-2.6575 -1.3283,0 0,-2.6574 0,0 0,-2.6575 1.3283,0 0,-2.6575 5.3153,0 0,2.6575 12.4032,0"
     inkscape:connector-curvature="0" />
  <path
     id="path15950"
     inkscape:label="part"
     style="fill:none;stroke:#000000;stroke-width:0.5"
     d="m 861.5617,466.6537 0,-25.265 -10.6309,0 0,-12.699 0,-12.699 10.6309,0 0,-12.6103 0,-12.6104 -10.6309,0 0,-12.699 0,-12.6989 10.6309,0 0,-12.6104 0,-12.6104 -10.6309,0 0,-12.6989 0,-12.699 10.6309,0 0,-25.2651"
     inkscape:connector-curvature="0" />
  <path
     id="path15952"
     inkscape:label="part"
     style="fill:none;stroke:#000000;stroke-width:0.5"
     d="m 861.5617,289.4883 -25.2674,0 0,10.63 -12.6999,0 -12.7002,0 0,-10.63 -12.6109,0 -12.6117,0 0,10.63 -12.699,0 -12.699,0 0,-10.63 -12.6103,0 -12.6104,0 0,10.63 -12.699,0 -12.6989,0 0,-10.63 -25.2651,0"
     inkscape:connector-curvature="0" />
  <path
     id="path15954"
     inkscape:label="part"
     style="fill:none;stroke:#000000;stroke-width:0.5"
     d="m 695.0198,324.7949 12.4016,0 0,-2.6575 5.315,0 0,2.6575 1.3287,0 0,2.6575 0,0 0,2.6574 -1.3287,0 0,2.6575 -5.315,0 0,-2.6575 -12.4016,0"
     inkscape:connector-curvature="0" />
  <circle
     id="path15956"
     style="fill:none;stroke:#000000;stroke-width:0.5"
     cx="689.7026"
     cy="352.7617"
     r="2.65748" />
  <path
     id="path15958"
     inkscape:label="part"
     style="fill:none;stroke:#000000;stroke-width:0.5"
     d="m 695.0198,375.4135 12.4016,0 0,-2.6574 5.315,0 0,2.6574 1.3287,0 0,2.6575 0,0 0,2.6575 -1.3287,0 0,2.6575 -5.315,0 0,-2.6575 -12.4016,0"
     inkscape:connector-curvature="0" />
  <circle
     id="path15960"
     style="fill:none;stroke:#000000;stroke-width:0.5"
     cx="689.7026"
     cy="403.3804"
     r="2.65748" />
  <path
     id="path15962"
     inkscape:label="part"
     style="fill:none;stroke:#000000;stroke-width:0.5"
     d="m 695.0198,426.0322 12.4016,0 0,-2.6575 5.315,0 0,2.6575 1.3287,0 0,2.6575 0,0 0,2.6575 -1.3287,0 0,2.6575 -5.315,0 0,-2.6575 -12.4016,0"
     inkscape:connector-curvature="0" />
  <path
     id="path15964"
     inkscape:label="part"
     style="fill:none;stroke:#000000;stroke-width:0.5"
     d="m 684.3899,289.4883 0,25.2651 10.6299,0 0,12.699 0,12.6989 -10.6299,0 0,12.6104 0,12.6104 10.6299,0 0,12.6989 0,12.699 -10.6299,0 0,12.6104 0,12.6103 10.6299,0 0,12.699 0,12.699 -10.6299,0 0,25.265"
     inkscape:connector-curvature="0" />
  <text
     id="text15966"
     y="378.07086"
     x="772.97125"
     style="font-size:12px;fill:#ff0000">back_panel</text>
  <path
     id="path15968"
     inkscape:label="part"
     style="fill:none;stroke:#000000;stroke-width:0.5"
     d="m 326.5159,277.0868 25.3536,0 0,10.6299 12.6104,0 12.6104,0 0,-10.6299 12.6989,0 12.699,0 0,10.6299 12.6104,0 12.6104,0 0,-10.6299 12.6989,0 12.699,0 0,10.6299 12.6104,0 12.6103,0 0,-10.6299 25.3537,0"
     inkscape:connector-curvature="0" />
  <path
     id="path15970"
     inkscape:label="part"
     style="fill:none;stroke:#000000;stroke-width:0.5"
     d="m 503.6813,277.0868 0,-14.6352 -10.63,0 0,-12.6989 0,-12.699 10.63,0 0,-12.6103 0,-12.6104 -10.63,0 0,-12.699 0,-12.6989 10.63,0 0,-12.6104 0,-12.6104 -10.63,0 0,-12.699 0,-12.6989 10.63,0 0,-14.6351"
     inkscape:connector-curvature="0" />
  <path
     id="path15972"
     inkscape:label="part"
     style="fill:none;stroke:#000000;stroke-width:0.5"
     d="m 503.6813,121.1813 -25.3537,0 0,-10.63 -12.6103,0 -12.6104,0 0,10.63 -12.699,0 -12.6989,0 0,-10.63 -12.6104,0 -12.6104,0 0,10.63 -12.699,0 -12.6989,0 0,-10.63 -12.6104,0 -12.6104,0 0,10.63 -25.3536,0"
     inkscape:connector-curvature="0" />
  <path
     id="path15974"
     inkscape:label="part"
     style="fill:none;stroke:#000000;stroke-width:0.5"
     d="m 326.5159,121.1813 0,14.6351 10.6299,0 0,12.6989 0,12.699 -10.6299,0 0,12.6104 0,12.6104 10.6299,0 0,12.6989 0,12.699 -10.6299,0 0,12.6104 0,12.6103 10.6299,0 0,12.699 0,12.6989 -10.6299,0 0,14.6352"
     inkscape:connector-curvature="0" />
  <text
     id="text15976"
     y="199.13393"
     x="415.09763"
     style="font-size:12px;fill:#ff0000">top_panel</text>
  <circle
     id="path15978"
     style="fill:none;stroke:#000000;stroke-width:0.5"
     cx="364.4792"
     cy="640.2756"
     r="2.65748" />
  <path
     id="path15980"
     inkscape:label="part"
     style="fill:none;stroke:#000000;stroke-width:0.5"
     d="m 387.1318,634.9608 0,-12.4016 -2.6575,0 0,-5.3149 2.6575,0 0,-1.3288 2.6574,0 0,0 2.6575,0 0,1.3288 2.6575,0 0,5.3149 -2.6575,0 0,12.4016"
     inkscape:connector-curvature="0" />
  <circle
     id="path15982"
     style="fill:none;stroke:#000000;stroke-width:0.5"
     cx="415.0972"
     cy="640.2756"
     r="2.65748" />
  <path
     id="path15984"
     inkscape:label="part"
     style="fill:none;stroke:#000000;stroke-width:0.5"
     d="m 437.7504,634.9608 0,-12.4016 -2.6574,0 0,-5.3149 2.6574,0 0,-1.3288 2.6575,0 0,0 2.6575,0 0,1.3288 2.6575,0 0,5.3149 -2.6575,0 0,12.4016"
     inkscape:connector-curvature="0" />
  <circle
     id="path15986"
     style="fill:none;stroke:#000000;stroke-width:0.5"
     cx="465.7151"
     cy="640.2756"
     r="2.65748" />
  <path
     id="path15988"
     inkscape:label="part"
     style="fill:none;stroke:#000000;stroke-width:0.5"
     d="m 326.5159,634.9608 25.3536,0 0,10.6299 12.6104,0 12.6104,0 0,-10.6299 12.6989,0 12.699,0 0,10.6299 12.6104,0 12.6104,0 0,-10.6299 12.6989,0 12.699,0 0,10.6299 12.6104,0 12.6103,0 0,-10.6299 25.3537,0"
     inkscape:connector-curvature="0" />
  <path
     id="path15990"
     inkscape:label="part"
     style="fill:none;stroke:#000000;stroke-width:0.5"
     d="m 493.0513,610.2842 -12.4015,0 0,2.6575 -5.315,0 0,-2.6575 -1.3287,0 0,-2.6575 0,0 0,-2.6575 1.3287,0 0,-2.6575 5.315,0 0,2.6575 12.4015,0"
     inkscape:connector-curvature="0" />
  <circle
     id="path15992"
     style="fill:none;stroke:#000000;stroke-width:0.5"
     cx="498.3641"
     cy="582.3173"
     r="2.65748" />
  <path
     id="path15994"
     inkscape:label="part"
     style="fill:none;stroke:#000000;stroke-width:0.5"
     d="m 493.0513,559.6655 -12.4015,0 0,2.6575 -5.315,0 0,-2.6575 -1.3287,0 0,-2.6575 0,0 0,-2.6574 1.3287,0 0,-2.6575 5.315,0 0,2.6575 12.4015,0"
     inkscape:connector-curvature="0" />
  <circle
     id="path15996"
     style="fill:none;stroke:#000000;stroke-width:0.5"
     cx="498.3641"
     cy="531.6987"
     r="2.65748" />
  <path
     id="path15998"
     inkscape:label="part"
     style="fill:none;stroke:#000000;stroke-width:0.5"
     d="m 493.0513,509.0468 -12.4015,0 0,2.6575 -5.315,0 0,-2.6575 -1.3287,0 0,-2.6574 0,0 0,-2.6575 1.3287,0 0,-2.6575 5.315,0 0,2.6575 12.4015,0"
     inkscape:connector-curvature="0" />
  <path
     id="path16000"
     inkscape:label="part"
     style="fill:none;stroke:#000000;stroke-width:0.5"
     d="m 503.6813,634.9608 0,-14.6351 -10.63,0 0,-12.699 0,-12.699 10.63,0 0,-12.6103 0,-12.6104 -10.63,0 0,-12.699 0,-12.6989 10.63,0 0,-12.6104 0,-12.6104 -10.63,0 0,-12.6989 0,-12.699 10.63,0 0,-14.6351"
     inkscape:connector-curvature="0" />
  <circle
     id="path16002"
     style="fill:none;stroke:#000000;stroke-width:0.5"
     cx="465.7151"
     cy="473.7403"
     r="2.65748" />
  <path
     id="path16004"
     inkscape:label="part"
     style="fill:none;stroke:#000000;stroke-width:0.5"
     d="m 443.0654,479.0553 0,12.4015 2.6575,0 0,5.315 -2.6575,0 0,1.3288 -2.6575,0 0,0 -2.6575,0 0,-1.3288 -2.6574,0 0,-5.315 2.6574,0 0,-12.4015"
     inkscape:connector-curvature="0" />
  <circle
     id="path16006"
     style="fill:none;stroke:#000000;stroke-width:0.5"
     cx="415.0972"
     cy="473.7403"
     r="2.65748" />
  <path
     id="path16008"
     inkscape:label="part"
     style="fill:none;stroke:#000000;stroke-width:0.5"
     d="m 392.4467,479.0553 0,12.4015 2.6575,0 0,5.315 -2.6575,0 0,1.3288 -2.6575,0 0,0 -2.6574,0 0,-1.3288 -2.6575,0 0,-5.315 2.6575,0 0,-12.4015"
     inkscape:connector-curvature="0" />
  <circle
     id="path16010"
     style="fill:none;stroke:#000000;stroke-width:0.5"
     cx="364.4792"
     cy="473.7403"
     r="2.65748" />
  <path
     id="path16012"
     inkscape:label="part"
     style="fill:none;stroke:#000000;stroke-width:0.5"
     d="m 503.6813,479.0553 -25.3537,0 0,-10.6299 -12.6103,0 -12.6104,0 0,10.6299 -12.699,0 -12.6989,0 0,-10.6299 -12.6104,0 -12.6104,0 0,10.6299 -12.699,0 -12.6989,0 0,-10.6299 -12.6104,0 -12.6104,0 0,10.6299 -25.3536,0"
     inkscape:connector-curvature="0" />
  <path
     id="path16014"
     inkscape:label="part"
     style="fill:none;stroke:#000000;stroke-width:0.5"
     d="m 337.1458,503.7319 12.4016,0 0,-2.6575 5.315,0 0,2.6575 1.3287,0 0,2.6575 0,0 0,2.6574 -1.3287,0 0,2.6575 -5.315,0 0,-2.6575 -12.4016,0"
     inkscape:connector-curvature="0" />
  <circle
     id="path16016"
     style="fill:none;stroke:#000000;stroke-width:0.5"
     cx="331.8306"
     cy="531.6987"
     r="2.65748" />
  <path
     id="path16018"
     inkscape:label="part"
     style="fill:none;stroke:#000000;stroke-width:0.5"
     d="m 337.1458,554.3506 12.4016,0 0,-2.6575 5.315,0 0,2.6575 1.3287,0 0,2.6574 0,0 0,2.6575 -1.3287,0 0,2.6575 -5.315,0 0,-2.6575 -12.4016,0"
     inkscape:connector-curvature="0" />
  <circle
     id="path16020"
     style="fill:none;stroke:#000000;stroke-width:0.5"
     cx="331.8306"
     cy="582.3173"
     r="2.65748" />
  <path
     id="path16022"
     inkscape:label="part"
     style="fill:none;stroke:#000000;stroke-width:0.5"
     d="m 337.1458,604.9692 12.4016,0 0,-2.6575 5.315,0 0,2.6575 1.3287,0 0,2.6575 0,0 0,2.6575 -1.3287,0 0,2.6575 -5.315,0 0,-2.6575 -12.4016,0"
     inkscape:connector-curvature="0" />
  <path
     id="path16024"
     inkscape:label="part"
     style="fill:none;stroke:#000000;stroke-width:0.5"
     d="m 326.5159,479.0553 0,14.6351 10.6299,0 0,12.699 0,12.6989 -10.6299,0 0,12.6104 0,12.6104 10.6299,0 0,12.6989 0,12.699 -10.6299,0 0,12.6104 0,12.6103 10.6299,0 0,12.699 0,12.699 -10.6299,0 0,14.6351"
     inkscape:connector-curvature="0" />
  <text
     id="text16026"
     y="557.00787"
     x="415.09763"
     style="font-size:12px;fill:#ff0000">bottom_panel</text>
  <circle
     id="path16028"
     style="fill:none;stroke:#000000;stroke-width:0.5"
     cx="185.543"
     cy="461.3387"
     r="2.65748" />
  <path
     id="path16030"
     inkscape:label="part"
     style="fill:none;stroke:#000000;stroke-width:0.5"
     d="m 208.1948,456.0238 0,-12.4016 -2.6575,0 0,-5.315 2.6575,0 0,-1.3287 2.6574,0 0,0 2.6575,0 0,1.3287 2.6575,0 0,5.315 -2.6575,0 0,12.4016"
     inkscape:connector-curvature="0" />
  <circle
     id="path16032"
     style="fill:none;stroke:#000000;stroke-width:0.5"
     cx="236.1618"
     cy="461.3387"
     r="2.65748" />
  <path
     id="path16034"
     inkscape:label="part"
     style="fill:none;stroke:#000000;stroke-width:0.5"
     d="m 258.8134,456.0238 0,-12.4016 -2.6575,0 0,-5.315 2.6575,0 0,-1.3287 2.6575,0 0,0 2.6575,0 0,1.3287 2.6575,0 0,5.315 -2.6575,0 0,12.4016"
     inkscape:connector-curvature="0" />
  <circle
     id="path16036"
     style="fill:none;stroke:#000000;stroke-width:0.5"
     cx="286.7805"
     cy="461.3387"
     r="2.65748" />
  <path
     id="path16038"
     inkscape:label="part"
     style="fill:none;stroke:#000000;stroke-width:0.5"
     d="m 158.2088,456.0238 14.7237,0 0,10.6299 12.6104,0 12.6104,0 0,-10.6299 12.6989,0 12.699,0 0,10.6299 12.6104,0 12.6104,0 0,-10.6299 12.6989,0 12.699,0 0,10.6299 12.6103,0 12.6104,0 0,-10.6299 14.7237,0"
     inkscape:connector-curvature="0" />
  <circle
     id="path16040"
     style="fill:none;stroke:#000000;stroke-width:0.5"
     cx="319.4295"
     cy="428.6897"
     r="2.65748" />
  <path
     id="path16042"
     inkscape:label="part"
     style="fill:none;stroke:#000000;stroke-width:0.5"
     d="m 314.1143,406.0378 -12.4015,0 0,2.6575 -5.315,0 0,-2.6575 -1.3287,0 0,-2.6574 0,0 0,-2.6575 1.3287,0 0,-2.6575 5.315,0 0,2.6575 12.4015,0"
     inkscape:connector-curvature="0" />
  <circle
     id="path16044"
     style="fill:none;stroke:#000000;stroke-width:0.5"
     cx="319.4295"
     cy="378.071"
     r="2.65748" />
  <path
     id="path16046"
     inkscape:label="part"
     style="fill:none;stroke:#000000;stroke-width:0.5"
     d="m 314.1143,355.4192 -12.4015,0 0,2.6574 -5.315,0 0,-2.6574 -1.3287,0 0,-2.6575 0,0 0,-2.6575 1.3287,0 0,-2.6575 5.315,0 0,2.6575 12.4015,0"
     inkscape:connector-curvature="0" />
  <circle
     id="path16048"
     style="fill:none;stroke:#000000;stroke-width:0.5"
     cx="319.4295"
     cy="327.4523"
     r="2.65748" />
  <path
     id="path16050"
     inkscape:label="part"
     style="fill:none;stroke:#000000;stroke-width:0.5"
     d="m 314.1143,456.0238 0,-14.7237 10.63,0 0,-12.6104 0,-12.6104 -10.63,0 0,-12.6989 0,-12.699 10.63,0 0,-12.6104 0,-12.6104 -10.63,0 0,-12.6989 0,-12.699 10.63,0 0,-12.6103 0,-12.6104 -10.63,0 0,-14.7237"
     inkscape:connector-curvature="0" />
  <path
     id="path16052"
     inkscape:label="part"
     style="fill:none;stroke:#000000;stroke-width:0.5"
     d="m 314.1143,300.1183 -14.7237,0 0,-10.63 -12.6104,0 -12.6103,0 0,10.63 -12.699,0 -12.6989,0 0,-10.63 -12.6104,0 -12.6104,0 0,10.63 -12.699,0 -12.6989,0 0,-10.63 -12.6104,0 -12.6104,0 0,10.63 -14.7237,0"
     inkscape:connector-curvature="0" />
  <circle
     id="path16054"
     style="fill:none;stroke:#000000;stroke-width:0.5"
     cx="152.894"
     cy="327.4523"
     r="2.65748" />
  <path
     id="path16056"
     inkscape:label="part"
     style="fill:none;stroke:#000000;stroke-width:0.5"
     d="m 158.2088,350.1042 12.4016,0 0,-2.6575 5.315,0 0,2.6575 1.3287,0 0,2.6575 0,0 0,2.6575 -1.3287,0 0,2.6574 -5.315,0 0,-2.6574 -12.4016,0"
     inkscape:connector-curvature="0" />
  <circle
     id="path16058"
     style="fill:none;stroke:#000000;stroke-width:0.5"
     cx="152.894"
     cy="378.071"
     r="2.65748" />
  <path
     id="path16060"
     inkscape:label="part"
     style="fill:none;stroke:#000000;stroke-width:0.5"
     d="m 158.2088,400.7229 12.4016,0 0,-2.6575 5.315,0 0,2.6575 1.3287,0 0,2.6575 0,0 0,2.6574 -1.3287,0 0,2.6575 -5.315,0 0,-2.6575 -12.4016,0"
     inkscape:connector-curvature="0" />
  <circle
     id="path16062"
     style="fill:none;stroke:#000000;stroke-width:0.5"
     cx="152.894"
     cy="428.6897"
     r="2.65748" />
  <path
     id="path16064"
     inkscape:label="part"
     style="fill:none;stroke:#000000;stroke-width:0.5"
     d="m 158.2088,300.1183 0,14.7237 -10.6299,0 0,12.6104 0,12.6103 10.6299,0 0,12.699 0,12.6989 -10.6299,0 0,12.6104 0,12.6104 10.6299,0 0,12.699 0,12.6989 -10.6299,0 0,12.6104 0,12.6104 10.6299,0 0,14.7237"
     inkscape:connector-curvature="0" />
  <text
     id="text16066"
     y="378.07086"
     x="236.16154"
     style="font-size:12px;fill:#ff0000">left_panel</text>
  <circle
     id="path16068"
     style="fill:none;stroke:#000000;stroke-width:0.5"
     cx="543.4147"
     cy="461.3387"
     r="2.65748" />
  <path
     id="path16070"
     inkscape:label="part"
     style="fill:none;stroke:#000000;stroke-width:0.5"
     d="m 566.0688,456.0238 0,-12.4016 -2.6575,0 0,-5.315 2.6575,0 0,-1.3287 2.6575,0 0,0 2.6574,0 0,1.3287 2.6575,0 0,5.315 -2.6575,0 0,12.4016"
     inkscape:connector-curvature="0" />
  <circle
     id="path16072"
     style="fill:none;stroke:#000000;stroke-width:0.5"
     cx="594.0334"
     cy="461.3387"
     r="2.65748" />
  <path
     id="path16074"
     inkscape:label="part"
     style="fill:none;stroke:#000000;stroke-width:0.5"
     d="m 616.6874,456.0238 0,-12.4016 -2.6574,0 0,-5.315 2.6574,0 0,-1.3287 2.6575,0 0,0 2.6575,0 0,1.3287 2.6575,0 0,5.315 -2.6575,0 0,12.4016"
     inkscape:connector-curvature="0" />
  <circle
     id="path16076"
     style="fill:none;stroke:#000000;stroke-width:0.5"
     cx="644.652"
     cy="461.3387"
     r="2.65748" />
  <path
     id="path16078"
     inkscape:label="part"
     style="fill:none;stroke:#000000;stroke-width:0.5"
     d="m 516.0828,456.0238 14.7237,0 0,10.6299 12.6104,0 12.6104,0 0,-10.6299 12.699,0 12.6989,0 0,10.6299 12.6104,0 12.6104,0 0,-10.6299 12.6989,0 12.699,0 0,10.6299 12.6104,0 12.6103,0 0,-10.6299 14.7237,0"
     inkscape:connector-curvature="0" />
  <circle
     id="path16080"
     style="fill:none;stroke:#000000;stroke-width:0.5"
     cx="677.3011"
     cy="428.6897"
     r="2.65748" />
  <path
     id="path16082"
     inkscape:label="part"
     style="fill:none;stroke:#000000;stroke-width:0.5"
     d="m 671.9883,406.0378 -12.4015,0 0,2.6575 -5.315,0 0,-2.6575 -1.3287,0 0,-2.6574 0,0 0,-2.6575 1.3287,0 0,-2.6575 5.315,0 0,2.6575 12.4015,0"
     inkscape:connector-curvature="0" />
  <circle
     id="path16084"
     style="fill:none;stroke:#000000;stroke-width:0.5"
     cx="677.3011"
     cy="378.071"
     r="2.65748" />
  <path
     id="path16086"
     inkscape:label="part"
     style="fill:none;stroke:#000000;stroke-width:0.5"
     d="m 671.9883,355.4192 -12.4015,0 0,2.6574 -5.315,0 0,-2.6574 -1.3287,0 0,-2.6575 0,0 0,-2.6575 1.3287,0 0,-2.6575 5.315,0 0,2.6575 12.4015,0"
     inkscape:connector-curvature="0" />
  <circle
     id="path16088"
     style="fill:none;stroke:#000000;stroke-width:0.5"
     cx="677.3011"
     cy="327.4523"
     r="2.65748" />
  <path
     id="path16090"
     inkscape:label="part"
     style="fill:none;stroke:#000000;stroke-width:0.5"
     d="m 671.9883,456.0238 0,-14.7237 10.63,0 0,-12.6104 0,-12.6104 -10.63,0 0,-12.6989 0,-12.699 10.63,0 0,-12.6104 0,-12.6104 -10.63,0 0,-12.6989 0,-12.699 10.63,0 0,-12.6103 0,-12.6104 -10.63,0 0,-14.7237"
     inkscape:connector-curvature="0" />
  <path
     id="path16092"
     inkscape:label="part"
     style="fill:none;stroke:#000000;stroke-width:0.5"
     d="m 671.9883,300.1183 -14.7237,0 0,-10.63 -12.6103,0 -12.6104,0 0,10.63 -12.699,0 -12.6989,0 0,-10.63 -12.6104,0 -12.6104,0 0,10.63 -12.6989,0 -12.699,0 0,-10.63 -12.6104,0 -12.6104,0 0,10.63 -14.7237,0"
     inkscape:connector-curvature="0" />
  <circle
     id="path16094"
     style="fill:none;stroke:#000000;stroke-width:0.5"
     cx="510.7657"
     cy="327.4523"
     r="2.65748" />
  <path
     id="path16096"
     inkscape:label="part"
     style="fill:none;stroke:#000000;stroke-width:0.5"
     d="m 516.0828,350.1042 12.4016,0 0,-2.6575 5.315,0 0,2.6575 1.3287,0 0,2.6575 0,0 0,2.6575 -1.3287,0 0,2.6574 -5.315,0 0,-2.6574 -12.4016,0"
     inkscape:connector-curvature="0" />
  <circle
     id="path16098"
     style="fill:none;stroke:#000000;stroke-width:0.5"
     cx="510.7657"
     cy="378.071"
     r="2.65748" />
  <path
     id="path16100"
     inkscape:label="part"
     style="fill:none;stroke:#000000;stroke-width:0.5"
     d="m 516.0828,400.7229 12.4016,0 0,-2.6575 5.315,0 0,2.6575 1.3287,0 0,2.6575 0,0 0,2.6574 -1.3287,0 0,2.6575 -5.315,0 0,-2.6575 -12.4016,0"
     inkscape:connector-curvature="0" />
  <circle
     id="path16102"
     style="fill:none;stroke:#000000;stroke-width:0.5"
     cx="510.7657"
     cy="428.6897"
     r="2.65748" />
  <path
     id="path16104"
     inkscape:label="part"
     style="fill:none;stroke:#000000;stroke-width:0.5"
     d="m 516.0828,300.1183 0,14.7237 -10.6299,0 0,12.6104 0,12.6103 10.6299,0 0,12.699 0,12.6989 -10.6299,0 0,12.6104 0,12.6104 10.6299,0 0,12.699 0,12.6989 -10.6299,0 0,12.6104 0,12.6104 10.6299,0 0,14.7237"
     inkscape:connector-curvature="0" />
  <text
     id="text16106"
     y="378.07086"
     x="594.03424"
     style="font-size:12px;fill:#ff0000">right_panel</text>
  <path
     id="path16108"
     inkscape:label="part"
     style="fill:none;stroke:#000000;stroke-width:0.5"
     d="m 397.382,431.2206 35.4331,0 m 35.4331,-35.433 0,-17.7166 m -35.4331,-35.433 -35.4331,0 m -35.433,35.433 0,17.7166"
     inkscape:connector-curvature="0" />
  <path
     id="path16110"
     sodipodi:type="arc"
     sodipodi:start="0"
     sodipodi:ry="35.43307"
     sodipodi:rx="35.43307"
     sodipodi:open="true"
     sodipodi:end="1.570796"
     sodipodi:cy="395.7876"
     sodipodi:cx="432.8137"
     style="fill:none;stroke:#000000;stroke-width:0.5"
     d="m 468.2468,395.7876 a 35.43307,35.43307 0 0 1 -35.4331,35.4331" />
  <path
     id="path16112"
     sodipodi:type="arc"
     sodipodi:start="1.570796"
     sodipodi:ry="35.43307"
     sodipodi:rx="35.43307"
     sodipodi:open="true"
     sodipodi:end="3.141593"
     sodipodi:cy="395.7876"
     sodipodi:cx="397.381"
     style="fill:none;stroke:#000000;stroke-width:0.5"
     d="m 397.381,431.2207 a 35.43307,35.43307 0 0 1 -25.055,-10.3781 35.43307,35.43307 0 0 1 -10.3781,-25.055" />
  <path
     id="path16114"
     sodipodi:type="arc"
     sodipodi:start="3.141593"
     sodipodi:ry="35.43307"
     sodipodi:rx="35.43307"
     sodipodi:open="true"
     sodipodi:end="4.712389"
     sodipodi:cy="378.071"
     sodipodi:cx="397.381"
     style="fill:none;stroke:#000000;stroke-width:0.5"
     d="M 361.9479,378.071 A 35.43307,35.43307 0 0 1 397.381,342.6379" />
  <path
     id="path16116"
     sodipodi:type="arc"
     sodipodi:start="4.712389"
     sodipodi:ry="35.43307"
     sodipodi:rx="35.43307"
     sodipodi:open="true"
     sodipodi:end="0"
     sodipodi:cy="378.071"
     sodipodi:cx="432.8137"
     style="fill:none;stroke:#000000;stroke-width:0.5"
     d="m 432.8137,342.6379 a 35.43307,35.43307 0 0 1 35.4331,35.4331" />
  <path
     id="path16118"
     inkscape:label="part"
     style="fill:none;stroke:#000000;stroke-width:0.5"
     d="m 377.8939,234.5671 74.4094,0 m 5.315,-5.315 0,-60.2362 m -5.315,-5.315 -74.4094,0 m -5.315,5.315 0,60.2362"
     inkscape:connector-curvature="0" />
  <path
     id="path16120"
     sodipodi:type="arc"
     sodipodi:start="0"
     sodipodi:ry="5.31496"
     sodipodi:rx="5.31496"
     sodipodi:open="true"
     sodipodi:end="1.570796"
     sodipodi:cy="229.2521"
     sodipodi:cx="452.3011"
     style="fill:none;stroke:#000000;stroke-width:0.5"
     d="m 457.616,229.2521 a 5.31496,5.31496 0 0 1 -5.3149,5.315" />
  <path
     id="path16122"
     sodipodi:type="arc"
     sodipodi:start="1.570796"
     sodipodi:ry="5.31496"
     sodipodi:rx="5.31496"
     sodipodi:open="true"
     sodipodi:end="3.141593"
     sodipodi:cy="229.2521"
     sodipodi:cx="377.8929"
     style="fill:none;stroke:#000000;stroke-width:0.5"
     d="m 377.8929,234.5671 a 5.31496,5.31496 0 0 1 -3.7582,-1.5568 5.31496,5.31496 0 0 1 -1.5567,-3.7582" />
  <path
     id="path16124"
     sodipodi:type="arc"
     sodipodi:start="3.141593"
     sodipodi:ry="5.31496"
     sodipodi:rx="5.31496"
     sodipodi:open="true"
     sodipodi:end="4.712389"
     sodipodi:cy="169.0159"
     sodipodi:cx="377.8929"
     style="fill:none;stroke:#000000;stroke-width:0.5"
     d="m 372.578,169.0159 a 5.31496,5.31496 0 0 1 5.3149,-5.315" />
  <path
     id="path16126"
     sodipodi:type="arc"
     sodipodi:start="4.712389"
     sodipodi:ry="5.31496"
     sodipodi:rx="5.31496"
     sodipodi:open="true"
     sodipodi:end="0"
     sodipodi:cy="169.0159"
     sodipodi:cx="452.3011"
     style="fill:none;stroke:#000000;stroke-width:0.5"
     d="m 452.3011,163.7009 a 5.31496,5.31496 0 0 1 5.3149,5.315" />
</svg>
